<svg xmlns="http://www.w3.org/2000/svg" width="41.294" height="32.75" viewBox="0 0 41.294 32.75">
  <g id="folder-svgrepo-com" transform="translate(0 -52.966)">
    <path id="SVGCleanerId_0" d="M39.13,58.662H28.787a1.424,1.424,0,0,1-1.274-.787l-1.03-2.061,1.03-2.061a1.424,1.424,0,0,1,1.274-.787H39.13a1.424,1.424,0,0,1,1.274.787l1.03,2.061L40.4,57.874A1.424,1.424,0,0,1,39.13,58.662Z" transform="translate(-24.347)" fill="#ffc36e"/>
    <g id="Group_507" data-name="Group 507" transform="translate(2.136 52.966)">
      <path id="SVGCleanerId_0_1_" d="M39.13,58.662H28.787a1.424,1.424,0,0,1-1.274-.787l-1.03-2.061,1.03-2.061a1.424,1.424,0,0,1,1.274-.787H39.13a1.424,1.424,0,0,1,1.274.787l1.03,2.061L40.4,57.874A1.424,1.424,0,0,1,39.13,58.662Z" transform="translate(-26.483 -52.966)" fill="#ffc36e"/>
    </g>
    <path id="Path_399" data-name="Path 399" d="M55.389,70.621H18.367a.712.712,0,0,0-.712.712v3.56H56.1v-3.56A.712.712,0,0,0,55.389,70.621Z" transform="translate(-16.231 -16.231)" fill="#eff2fa"/>
    <rect id="Rectangle_83" data-name="Rectangle 83" width="38.446" height="1.424" transform="translate(1.424 57.238)" fill="#e1e6f2"/>
    <path id="Path_400" data-name="Path 400" d="M39.87,88.276H17.527a.712.712,0,0,0-.637.394l-.834,1.667a1.424,1.424,0,0,1-1.274.787H4.44a1.424,1.424,0,0,1-1.274-.787L2.333,88.67a.712.712,0,0,0-.637-.394H1.424A1.424,1.424,0,0,0,0,89.7v27.055a1.424,1.424,0,0,0,1.424,1.424H39.87a1.424,1.424,0,0,0,1.424-1.424V89.7A1.424,1.424,0,0,0,39.87,88.276Z" transform="translate(0 -32.462)" fill="#ffd782"/>
    <path id="Path_401" data-name="Path 401" d="M55.389,425.147H18.367a.712.712,0,0,1-.712-.712h0a.712.712,0,0,1,.712-.712H55.389a.712.712,0,0,1,.712.712h0A.712.712,0,0,1,55.389,425.147Z" transform="translate(-16.231 -340.855)" fill="#ffc36e"/>
    <path id="Path_402" data-name="Path 402" d="M318.505,139.533h10.679a.712.712,0,0,0,.712-.712v-5.7a.712.712,0,0,0-.712-.712H318.505a.712.712,0,0,0-.712.712v5.7A.712.712,0,0,0,318.505,139.533Z" transform="translate(-292.162 -73.039)" fill="#eff2fa"/>
    <path id="Path_403" data-name="Path 403" d="M343.992,151.492H336.16a.712.712,0,0,1-.712-.712h0a.712.712,0,0,1,.712-.712h7.832a.712.712,0,0,1,.712.712h0A.712.712,0,0,1,343.992,151.492Z" transform="translate(-308.393 -89.271)" fill="#00c691"/>
    <path id="Path_404" data-name="Path 404" d="M343.992,186.8H336.16a.712.712,0,0,1-.712-.712h0a.712.712,0,0,1,.712-.712h7.832a.712.712,0,0,1,.712.712h0A.712.712,0,0,1,343.992,186.8Z" transform="translate(-308.393 -121.733)" fill="#00c691" opacity="0.41"/>
  </g>
</svg>
