<svg id="Logo_login" xmlns="http://www.w3.org/2000/svg" width="234" height="79.001" viewBox="0 0 234 79.001">
  <text id="Digi_Doc" data-name="Digi Doc" transform="translate(24 66.001)" fill="#00c691" font-size="54" font-family="FredokaOne-Regular, Fredoka One"><tspan x="0" y="0">Digi </tspan><tspan y="0" fill="#141212">Doc</tspan></text>
  <g id="Layer_2" data-name="Layer 2">
    <g id="Layer_1" data-name="Layer 1">
      <path id="Path_260" data-name="Path 260" d="M34.854,56.746H23.539A2.843,2.843,0,0,1,20.7,53.9V23.932a2.843,2.843,0,0,1,2.843-2.843H61.87V25.5a2.735,2.735,0,0,0,2.73,2.731h.237A2.735,2.735,0,0,0,67.566,25.5V12.475A8.539,8.539,0,0,0,59.027,4H47.677a8.615,8.615,0,0,0-6.838,3.414l-5.976,7.979H23.539A8.539,8.539,0,0,0,15,23.932V53.9a8.539,8.539,0,0,0,8.539,8.539H34.854A2.843,2.843,0,0,0,37.708,59.6h0a2.854,2.854,0,0,0-2.854-2.854ZM45.362,10.838A2.811,2.811,0,0,1,47.677,9.7h11.35a2.843,2.843,0,0,1,2.843,2.843V15.4H41.937Z" transform="translate(-15 -4)" fill="#00c691"/>
    </g>
  </g>
  <path id="Subtraction_2" data-name="Subtraction 2" d="M6.045,18H.088A11.217,11.217,0,0,1,0,16.6V11a11,11,0,0,1,22,0v5.6a11.212,11.212,0,0,1-.088,1.4l-5.956,0a5.189,5.189,0,0,0,.255-1.611v-5.18a5.211,5.211,0,1,0-10.421,0v5.178A5.191,5.191,0,0,0,6.045,18Z" transform="translate(178 24.001)" fill="#141212"/>
  <circle id="Ellipse_1" data-name="Ellipse 1" cx="2" cy="2" r="2" transform="translate(187 49.001)" fill="#141212"/>
  <rect id="Rectangle_5" data-name="Rectangle 5" width="4" height="6" rx="2" transform="translate(187 54.001)" fill="#141212"/>
</svg>
