<?xml version="1.0" encoding="UTF-8"?>
<svg xmlns="http://www.w3.org/2000/svg" xmlns:xlink="http://www.w3.org/1999/xlink" width="126px" height="43px" viewBox="0 0 188 43" version="1.1">
<g id="surface1">
<rect x="0" y="0" width="188" height="43" style="fill:rgb(100%,100%,100%);fill-opacity:1;stroke:none;"/>
<path style=" stroke:none;fill-rule:nonzero;fill:rgb(2.352941%,60.392157%,68.235294%);fill-opacity:1;" d="M 151.902344 9.890625 C 152.316406 12.199219 154.316406 14 155.804688 15.695312 C 156.375 16.34375 157.757812 17.492188 157.558594 18.480469 C 157.324219 19.640625 155.007812 20.339844 154.050781 20.726562 C 153.210938 21.066406 152.363281 21.316406 151.472656 21.5 L 151.472656 21.714844 C 155.269531 21.714844 159.238281 21.726562 162.863281 20.414062 C 165.113281 19.597656 166.921875 18.03125 169.09375 17.050781 C 171.429688 15.996094 174.273438 15.53125 176.828125 15.480469 L 176.828125 15.265625 L 173.390625 14.054688 L 167.160156 15.871094 L 162.648438 12.660156 Z M 151.902344 9.890625 "/>
<path style=" stroke:none;fill-rule:nonzero;fill:rgb(63.137255%,63.137255%,63.137255%);fill-opacity:1;" d="M 152.117188 9.890625 L 152.332031 10.105469 L 152.117188 9.890625 M 152.546875 10.105469 L 152.761719 10.320312 L 152.546875 10.105469 M 152.976562 10.320312 L 153.191406 10.535156 L 152.976562 10.320312 M 151.902344 10.535156 L 152.117188 10.75 L 151.902344 10.535156 M 153.621094 10.535156 L 153.835938 10.75 L 153.621094 10.535156 M 154.265625 10.75 L 154.480469 10.964844 L 154.265625 10.75 M 152.117188 10.964844 L 152.332031 11.179688 L 152.117188 10.964844 M 154.910156 10.964844 L 155.125 11.179688 L 154.910156 10.964844 M 155.914062 11.25 L 156.058594 11.324219 L 155.914062 11.25 M 152.332031 11.394531 L 152.546875 11.609375 L 152.332031 11.394531 M 156.847656 11.394531 L 156.847656 11.609375 L 157.492188 11.609375 L 156.847656 11.394531 M 158.492188 11.683594 L 158.636719 11.753906 L 158.492188 11.683594 M 159.640625 11.824219 L 159.640625 12.039062 L 160.285156 12.039062 L 159.640625 11.824219 M 152.761719 12.039062 L 152.976562 12.253906 L 152.761719 12.039062 M 161.144531 12.039062 L 161.359375 12.253906 L 161.144531 12.039062 M 161.789062 12.253906 L 162.003906 12.46875 L 161.789062 12.253906 M 162.433594 12.46875 L 162.648438 12.683594 L 162.433594 12.46875 M 162.863281 12.683594 L 163.078125 12.898438 L 162.863281 12.683594 M 153.40625 12.898438 L 153.621094 13.113281 L 153.40625 12.898438 M 163.292969 12.898438 L 163.507812 13.113281 L 163.292969 12.898438 M 153.621094 13.113281 L 153.835938 13.328125 L 153.621094 13.113281 M 163.9375 13.328125 L 164.152344 13.546875 L 163.9375 13.328125 M 154.265625 13.976562 L 154.480469 14.191406 L 154.265625 13.976562 M 164.796875 13.976562 L 165.011719 14.191406 L 164.796875 13.976562 M 172.960938 13.976562 L 173.175781 14.191406 L 172.960938 13.976562 M 174.25 13.976562 L 174.464844 14.191406 L 174.25 13.976562 M 154.480469 14.191406 L 154.695312 14.40625 L 154.480469 14.191406 M 165.011719 14.191406 L 165.226562 14.40625 L 165.011719 14.191406 M 172.316406 14.191406 L 172.53125 14.40625 L 172.316406 14.191406 M 154.695312 14.40625 L 154.910156 14.621094 L 154.695312 14.40625 M 165.226562 14.40625 L 165.441406 14.621094 L 165.226562 14.40625 M 171.671875 14.40625 L 171.886719 14.621094 L 171.671875 14.40625 M 174.894531 14.40625 L 175.109375 14.621094 L 174.894531 14.40625 M 154.910156 14.621094 L 155.125 14.835938 L 154.910156 14.621094 M 171.242188 14.621094 L 171.457031 14.835938 L 171.242188 14.621094 M 175.109375 14.621094 L 175.324219 14.835938 L 175.109375 14.621094 M 155.125 14.835938 L 155.339844 15.050781 L 155.125 14.835938 M 170.597656 14.835938 L 170.8125 15.050781 L 170.597656 14.835938 M 175.894531 14.90625 L 176.039062 14.976562 L 175.894531 14.90625 M 170.09375 15.121094 L 170.238281 15.191406 L 170.09375 15.121094 M 176.613281 15.050781 L 176.828125 15.265625 L 176.613281 15.050781 M 165.871094 15.265625 L 166.085938 15.480469 L 165.871094 15.265625 M 169.523438 15.265625 L 169.738281 15.480469 L 169.523438 15.265625 M 176.828125 15.265625 L 177.042969 15.480469 L 176.828125 15.265625 M 168.804688 15.550781 L 168.949219 15.625 L 168.804688 15.550781 M 175.324219 15.480469 L 175.324219 15.695312 L 176.398438 15.695312 L 175.324219 15.480469 M 167.945312 15.765625 L 168.089844 15.839844 L 167.945312 15.765625 M 173.605469 15.695312 L 173.605469 15.910156 L 174.25 15.910156 L 173.605469 15.695312 M 172.457031 15.980469 L 172.601562 16.054688 L 172.457031 15.980469 M 171.457031 16.125 L 171.671875 16.339844 L 171.457031 16.125 M 156.414062 16.339844 L 156.628906 16.554688 L 156.414062 16.339844 M 170.597656 16.339844 L 170.8125 16.554688 L 170.597656 16.339844 M 156.628906 16.554688 L 156.847656 16.769531 L 156.628906 16.554688 M 169.953125 16.554688 L 170.167969 16.769531 L 169.953125 16.554688 M 169.308594 16.769531 L 169.523438 16.984375 L 169.308594 16.769531 M 168.878906 16.984375 L 169.09375 17.199219 L 168.878906 16.984375 M 157.277344 17.414062 L 157.492188 17.628906 L 157.277344 17.414062 M 167.160156 17.84375 L 167.375 18.058594 L 167.160156 17.84375 M 157.777344 18.417969 L 157.847656 18.5625 L 157.777344 18.417969 M 166.515625 18.273438 L 166.730469 18.488281 L 166.515625 18.273438 M 165.871094 18.703125 L 166.085938 18.921875 L 165.871094 18.703125 M 157.0625 19.136719 L 157.277344 19.351562 L 157.0625 19.136719 M 165.226562 19.136719 L 165.441406 19.351562 L 165.226562 19.136719 M 156.628906 19.351562 L 156.847656 19.566406 L 156.628906 19.351562 M 164.796875 19.351562 L 165.011719 19.566406 L 164.796875 19.351562 M 155.339844 19.996094 L 155.554688 20.210938 L 155.339844 19.996094 M 163.507812 19.996094 L 163.722656 20.210938 L 163.507812 19.996094 M 154.910156 20.210938 L 155.125 20.425781 L 154.910156 20.210938 M 163.078125 20.210938 L 163.292969 20.425781 L 163.078125 20.210938 M 154.480469 20.425781 L 154.695312 20.640625 L 154.480469 20.425781 M 162.433594 20.425781 L 162.648438 20.640625 L 162.433594 20.425781 M 153.835938 20.640625 L 154.050781 20.855469 L 153.835938 20.640625 M 161.789062 20.640625 L 162.003906 20.855469 L 161.789062 20.640625 M 153.335938 20.925781 L 153.480469 21 L 153.335938 20.925781 M 160.855469 20.925781 L 161 21 L 160.855469 20.925781 M 152.691406 21.140625 L 152.835938 21.214844 L 152.691406 21.140625 M 159.640625 21.070312 L 159.640625 21.285156 L 160.285156 21.285156 L 159.640625 21.070312 M 151.902344 21.285156 L 152.117188 21.5 L 151.902344 21.285156 M 158.351562 21.285156 L 158.351562 21.5 L 158.996094 21.5 L 158.351562 21.285156 M 151.257812 21.5 L 151.472656 21.714844 L 151.257812 21.5 M 156.628906 21.5 L 156.628906 21.714844 L 157.492188 21.714844 L 156.628906 21.5 M 28.289062 21.785156 L 28.433594 21.859375 Z M 28.289062 21.785156 "/>
<path style=" stroke:none;fill-rule:nonzero;fill:rgb(1.568627%,1.568627%,1.568627%);fill-opacity:1;" d="M 32.660156 31.175781 C 30.867188 31.917969 29.101562 32.523438 27.285156 31.390625 C 23.757812 29.191406 24.824219 23.042969 29.21875 22.800781 C 30.53125 22.726562 31.480469 23.160156 32.660156 23.648438 C 32.492188 21.472656 29.550781 21.628906 27.929688 22.039062 C 25.34375 22.703125 24.046875 24.976562 24.066406 27.519531 C 24.082031 30.027344 25.53125 32.363281 28.144531 32.824219 C 29.746094 33.105469 32.496094 33.253906 32.660156 31.175781 Z M 32.660156 31.175781 "/>
<path style=" stroke:none;fill-rule:nonzero;fill:rgb(63.137255%,63.137255%,63.137255%);fill-opacity:1;" d="M 30.867188 21.785156 L 31.011719 21.859375 L 30.867188 21.785156 M 40.320312 21.785156 L 40.464844 21.859375 Z M 40.320312 21.785156 "/>
<path style=" stroke:none;fill-rule:nonzero;fill:rgb(1.568627%,1.568627%,1.568627%);fill-opacity:1;" d="M 44.90625 31.175781 C 43.578125 31.648438 42.5 32.179688 41.039062 31.996094 C 36.410156 31.414062 35.933594 24.59375 40.179688 23.035156 C 41.753906 22.453125 43.273438 22.925781 44.691406 23.648438 C 44.519531 21.457031 41.585938 21.613281 39.964844 22.042969 C 37.511719 22.6875 36.070312 25.082031 36.101562 27.519531 C 36.132812 30.019531 37.804688 32.476562 40.394531 32.851562 C 41.941406 33.074219 44.746094 33.199219 44.90625 31.175781 Z M 44.90625 31.175781 "/>
<path style=" stroke:none;fill-rule:nonzero;fill:rgb(63.137255%,63.137255%,63.137255%);fill-opacity:1;" d="M 42.972656 21.714844 L 43.1875 21.929688 L 42.972656 21.714844 M 52.425781 21.714844 L 52.640625 21.929688 Z M 52.425781 21.714844 "/>
<path style=" stroke:none;fill-rule:nonzero;fill:rgb(1.568627%,1.568627%,1.568627%);fill-opacity:1;" d="M 53.285156 21.8125 C 48.75 22.417969 46.3125 28.164062 49.886719 31.535156 C 51.265625 32.835938 53.191406 33.078125 55.003906 32.855469 C 61.96875 32.007812 60.214844 20.890625 53.285156 21.8125 Z M 53.285156 21.8125 "/>
<path style=" stroke:none;fill-rule:nonzero;fill:rgb(63.137255%,63.137255%,63.137255%);fill-opacity:1;" d="M 55.148438 21.785156 L 55.289062 21.859375 L 55.148438 21.785156 M 64.027344 21.714844 L 64.027344 21.929688 L 64.671875 21.929688 Z M 64.027344 21.714844 "/>
<path style=" stroke:none;fill-rule:nonzero;fill:rgb(1.568627%,1.568627%,1.568627%);fill-opacity:1;" d="M 64.027344 21.929688 L 64.027344 30.101562 C 64.027344 31.386719 63.707031 32.769531 65.316406 32.894531 L 65.316406 25.371094 C 65.316406 24.554688 65.050781 23.136719 65.992188 22.738281 C 69.503906 21.25 72.480469 26.632812 67.894531 27.734375 C 68.058594 29.886719 70.898438 32.871094 73.050781 32.894531 L 69.183594 28.164062 C 71.71875 27.652344 72.613281 24.3125 70.464844 22.714844 C 68.605469 21.332031 66.140625 21.925781 64.027344 21.929688 Z M 64.027344 21.929688 "/>
<path style=" stroke:none;fill-rule:nonzero;fill:rgb(63.137255%,63.137255%,63.137255%);fill-opacity:1;" d="M 68.46875 21.785156 L 68.609375 21.859375 L 68.46875 21.785156 M 128.269531 21.714844 L 128.484375 21.929688 Z M 128.269531 21.714844 "/>
<path style=" stroke:none;fill-rule:nonzero;fill:rgb(1.568627%,1.568627%,1.568627%);fill-opacity:1;" d="M 126.121094 29.886719 L 126.121094 32.464844 C 129.03125 33.128906 134.9375 32.902344 132.996094 28.164062 C 132.179688 26.179688 129.878906 26.917969 128.839844 25.496094 C 127.3125 23.402344 132.101562 24.773438 132.566406 24.941406 C 132.566406 24.203125 132.765625 23.089844 132.222656 22.5 C 130.558594 20.6875 126.421875 22.011719 125.980469 24.296875 C 125.625 26.113281 126.3125 27.558594 128.054688 28.226562 C 128.734375 28.488281 130.875 28.898438 130.378906 30.050781 C 129.703125 31.628906 127.101562 30.234375 126.121094 29.886719 Z M 126.121094 29.886719 "/>
<path style=" stroke:none;fill-rule:nonzero;fill:rgb(63.137255%,63.137255%,63.137255%);fill-opacity:1;" d="M 130.847656 21.714844 L 131.0625 21.929688 L 130.847656 21.714844 M 151.472656 21.714844 L 151.472656 21.929688 L 154.265625 21.929688 Z M 151.472656 21.714844 "/>
<path style=" stroke:none;fill-rule:nonzero;fill:rgb(1.568627%,1.568627%,1.568627%);fill-opacity:1;" d="M 11.171875 32.894531 L 12.246094 32.894531 C 12.941406 29.957031 14.015625 29.886719 16.757812 29.886719 C 17.390625 29.886719 18.410156 29.679688 18.949219 30.074219 C 20.1875 30.984375 19.597656 32.75 21.484375 32.894531 C 20.421875 30.152344 19.242188 27.449219 18.132812 24.726562 C 17.816406 23.945312 17.433594 22.242188 16.5 22.003906 C 15.265625 21.6875 14.863281 23.460938 14.523438 24.296875 C 13.390625 27.085938 11.867188 29.960938 11.171875 32.894531 Z M 11.171875 32.894531 "/>
<path style=" stroke:none;fill-rule:nonzero;fill:rgb(63.137255%,63.137255%,63.137255%);fill-opacity:1;" d="M 16.972656 21.929688 L 17.1875 22.144531 L 16.972656 21.929688 M 27.5 21.929688 L 27.714844 22.144531 L 27.5 21.929688 M 31.585938 21.929688 L 31.800781 22.144531 L 31.585938 21.929688 M 39.535156 21.929688 L 39.75 22.144531 L 39.535156 21.929688 M 43.757812 22 L 43.902344 22.074219 L 43.757812 22 M 51.710938 22 L 51.851562 22.074219 L 51.710938 22 M 55.863281 21.929688 L 56.078125 22.144531 L 55.863281 21.929688 M 69.328125 22 L 69.46875 22.074219 Z M 69.328125 22 "/>
<path style=" stroke:none;fill-rule:nonzero;fill:rgb(1.568627%,1.568627%,1.568627%);fill-opacity:1;" d="M 77.347656 21.929688 L 77.347656 29.671875 L 77.570312 32.550781 L 80.140625 32.894531 L 80.140625 21.929688 Z M 77.347656 21.929688 "/>
<path style=" stroke:none;fill-rule:nonzero;fill:rgb(63.137255%,63.137255%,63.137255%);fill-opacity:1;" d="M 85.082031 21.929688 L 85.082031 32.894531 L 85.296875 32.894531 C 85.296875 29.816406 86.265625 24.753906 85.082031 21.929688 Z M 85.082031 21.929688 "/>
<path style=" stroke:none;fill-rule:nonzero;fill:rgb(1.568627%,1.568627%,1.568627%);fill-opacity:1;" d="M 85.296875 21.929688 L 85.296875 32.894531 L 87.875 32.894531 L 87.875 26.445312 C 90.335938 29.140625 91.144531 32.894531 95.183594 32.894531 L 95.183594 21.929688 L 92.601562 21.929688 L 92.601562 28.59375 C 91.210938 26.960938 89.761719 22.925781 87.804688 22.058594 C 87.101562 21.746094 86.054688 21.929688 85.296875 21.929688 Z M 85.296875 21.929688 "/>
<path style=" stroke:none;fill-rule:nonzero;fill:rgb(63.137255%,63.137255%,63.137255%);fill-opacity:1;" d="M 88.089844 21.929688 L 88.304688 22.144531 Z M 88.089844 21.929688 "/>
<path style=" stroke:none;fill-rule:nonzero;fill:rgb(1.568627%,1.568627%,1.568627%);fill-opacity:1;" d="M 98.835938 21.929688 C 99.714844 24.535156 100.75 27.097656 101.71875 29.671875 C 102.035156 30.511719 102.316406 32.117188 103.066406 32.675781 C 103.75 33.183594 105.804688 33.070312 106.339844 32.398438 C 107.003906 31.554688 107.222656 30.230469 107.601562 29.238281 C 108.507812 26.898438 109.796875 24.40625 110.222656 21.929688 L 107.578125 22.152344 L 106.640625 24.296875 L 104.851562 29.886719 C 103.238281 28.21875 102.363281 24.1875 101.84375 21.929688 Z M 98.835938 21.929688 "/>
<path style=" stroke:none;fill-rule:nonzero;fill:rgb(63.137255%,63.137255%,63.137255%);fill-opacity:1;" d="M 107.214844 21.929688 L 107.429688 22.144531 L 107.214844 21.929688 M 113.875 21.929688 L 113.875 32.894531 L 114.089844 32.894531 C 114.089844 29.816406 115.058594 24.753906 113.875 21.929688 Z M 113.875 21.929688 "/>
<path style=" stroke:none;fill-rule:nonzero;fill:rgb(1.568627%,1.568627%,1.568627%);fill-opacity:1;" d="M 114.089844 21.929688 L 114.089844 32.894531 L 121.394531 32.894531 L 121.394531 30.53125 L 116.667969 30.53125 L 116.667969 28.378906 L 120.535156 28.378906 L 120.535156 26.445312 L 116.667969 26.445312 L 116.667969 24.296875 L 121.179688 24.296875 L 121.179688 21.929688 Z M 114.089844 21.929688 "/>
<path style=" stroke:none;fill-rule:nonzero;fill:rgb(63.137255%,63.137255%,63.137255%);fill-opacity:1;" d="M 127.625 21.929688 L 127.839844 22.144531 L 127.625 21.929688 M 131.707031 21.929688 L 131.921875 22.144531 Z M 131.707031 21.929688 "/>
<path style=" stroke:none;fill-rule:nonzero;fill:rgb(100%,100%,100%);fill-opacity:1;" d="M 145.886719 21.929688 C 145.886719 24.273438 145.082031 25.011719 142.664062 24.296875 L 142.664062 32.894531 L 139.65625 32.894531 L 139.65625 24.296875 C 137.238281 25.011719 136.433594 24.273438 136.433594 21.929688 Z M 145.886719 21.929688 "/>
<path style=" stroke:none;fill-rule:nonzero;fill:rgb(1.568627%,1.568627%,1.568627%);fill-opacity:1;" d="M 136.648438 21.929688 L 136.648438 24.296875 L 139.871094 24.296875 L 139.871094 32.894531 L 142.449219 32.894531 L 142.449219 24.296875 L 145.886719 24.296875 L 145.886719 21.929688 Z M 136.648438 21.929688 "/>
<path style=" stroke:none;fill-rule:nonzero;fill:rgb(63.137255%,63.137255%,63.137255%);fill-opacity:1;" d="M 26.855469 22.144531 L 27.070312 22.359375 L 26.855469 22.144531 M 39.105469 22.144531 L 39.320312 22.359375 L 39.105469 22.144531 M 44.261719 22.144531 L 44.476562 22.359375 L 44.261719 22.144531 M 51.136719 22.144531 L 51.351562 22.359375 L 51.136719 22.144531 M 69.828125 22.144531 L 70.042969 22.359375 L 69.828125 22.144531 M 101.84375 22.144531 L 102.058594 22.359375 L 101.84375 22.144531 M 110.222656 22.144531 L 110.4375 22.359375 L 110.222656 22.144531 M 127.195312 22.144531 L 127.410156 22.359375 L 127.195312 22.144531 M 132.136719 22.144531 L 132.351562 22.359375 L 132.136719 22.144531 M 38.675781 22.359375 L 38.890625 22.574219 L 38.675781 22.359375 M 44.691406 22.359375 L 44.90625 22.574219 L 44.691406 22.359375 M 50.707031 22.359375 L 50.921875 22.574219 L 50.707031 22.359375 M 56.722656 22.359375 L 56.9375 22.574219 L 56.722656 22.359375 M 70.257812 22.359375 L 70.472656 22.574219 L 70.257812 22.359375 M 88.304688 22.359375 L 88.519531 22.574219 L 88.304688 22.359375 M 98.835938 22.359375 L 99.050781 22.574219 L 98.835938 22.359375 M 15.039062 22.574219 L 15.253906 22.789062 L 15.039062 22.574219 M 26.210938 22.574219 L 26.425781 22.789062 L 26.210938 22.574219 M 32.660156 22.574219 L 32.445312 23.863281 L 32.660156 22.574219 M 38.246094 22.574219 L 38.460938 22.789062 L 38.246094 22.574219 M 57.152344 22.574219 L 57.367188 22.789062 L 57.152344 22.574219 M 88.519531 22.574219 L 88.734375 22.789062 L 88.519531 22.574219 M 107 22.574219 L 107.214844 22.789062 L 107 22.574219 M 110.078125 22.71875 L 110.148438 22.863281 L 110.078125 22.71875 M 132.566406 22.574219 L 132.566406 25.15625 L 132.78125 25.15625 Z M 132.566406 22.574219 "/>
<path style=" stroke:none;fill-rule:nonzero;fill:rgb(1.568627%,1.568627%,1.568627%);fill-opacity:1;" d="M 16.328125 22.789062 L 18.691406 29.023438 L 13.75 29.023438 C 14.035156 27.121094 15.117188 24.289062 16.328125 22.789062 Z M 16.328125 22.789062 "/>
<path style=" stroke:none;fill-rule:nonzero;fill:rgb(63.137255%,63.137255%,63.137255%);fill-opacity:1;" d="M 28.71875 22.863281 L 28.863281 22.933594 L 28.71875 22.863281 M 30.4375 22.863281 L 30.582031 22.933594 L 30.4375 22.863281 M 38.03125 22.789062 L 38.246094 23.003906 L 38.03125 22.789062 M 40.75 22.863281 L 40.894531 22.933594 L 40.75 22.863281 M 42.683594 22.863281 L 42.828125 22.933594 L 42.683594 22.863281 M 50.0625 22.789062 L 50.277344 23.003906 Z M 50.0625 22.789062 "/>
<path style=" stroke:none;fill-rule:nonzero;fill:rgb(1.568627%,1.568627%,1.568627%);fill-opacity:1;" d="M 52.640625 22.875 C 58.503906 21.59375 60.933594 30.558594 55.21875 31.921875 C 49.277344 33.335938 46.71875 24.164062 52.640625 22.875 Z M 52.640625 22.875 "/>
<path style=" stroke:none;fill-rule:nonzero;fill:rgb(63.137255%,63.137255%,63.137255%);fill-opacity:1;" d="M 52.785156 22.863281 L 52.925781 22.933594 Z M 52.785156 22.863281 "/>
<path style=" stroke:none;fill-rule:nonzero;fill:rgb(100%,100%,100%);fill-opacity:1;" d="M 53.070312 22.890625 C 47.4375 23.929688 48.859375 32.910156 54.574219 31.902344 C 60.300781 30.886719 58.878906 21.820312 53.070312 22.890625 Z M 53.070312 22.890625 "/>
<path style=" stroke:none;fill-rule:nonzero;fill:rgb(63.137255%,63.137255%,63.137255%);fill-opacity:1;" d="M 54.71875 22.863281 L 54.859375 22.933594 L 54.71875 22.863281 M 57.367188 22.789062 L 57.582031 23.003906 L 57.367188 22.789062 M 68.039062 22.863281 L 68.179688 22.933594 L 68.039062 22.863281 M 102.058594 22.789062 L 102.273438 23.003906 L 102.058594 22.789062 M 14.824219 23.003906 L 15.039062 23.21875 L 14.824219 23.003906 M 16.113281 23.003906 L 16.328125 23.21875 L 16.113281 23.003906 M 17.402344 23.003906 L 17.617188 23.21875 L 17.402344 23.003906 M 31.371094 23.003906 L 31.585938 23.21875 L 31.371094 23.003906 M 39.964844 23.003906 L 40.179688 23.21875 L 39.964844 23.003906 M 43.402344 23.003906 L 43.617188 23.21875 L 43.402344 23.003906 M 49.847656 23.003906 L 50.0625 23.21875 L 49.847656 23.003906 M 51.996094 23.003906 L 52.210938 23.21875 L 51.996094 23.003906 M 55.433594 23.003906 L 55.648438 23.21875 L 55.433594 23.003906 M 68.753906 23.003906 L 68.96875 23.21875 L 68.753906 23.003906 M 88.734375 23.003906 L 88.949219 23.21875 L 88.734375 23.003906 M 99.050781 23.003906 L 99.265625 23.21875 Z M 99.050781 23.003906 "/>
<path style=" stroke:none;fill-rule:nonzero;fill:rgb(100%,100%,100%);fill-opacity:1;" d="M 16.113281 23.21875 L 13.75 28.808594 L 18.476562 28.808594 Z M 16.113281 23.21875 "/>
<path style=" stroke:none;fill-rule:nonzero;fill:rgb(63.137255%,63.137255%,63.137255%);fill-opacity:1;" d="M 25.351562 23.21875 L 25.566406 23.433594 L 25.351562 23.21875 M 27.285156 23.21875 L 27.5 23.433594 L 27.285156 23.21875 M 31.800781 23.21875 L 32.015625 23.433594 L 31.800781 23.21875 M 39.535156 23.21875 L 39.75 23.433594 L 39.535156 23.21875 M 43.832031 23.21875 L 44.046875 23.433594 L 43.832031 23.21875 M 49.632812 23.21875 L 49.847656 23.433594 L 49.632812 23.21875 M 51.566406 23.21875 L 51.78125 23.433594 L 51.566406 23.21875 M 88.949219 23.21875 L 89.164062 23.433594 L 88.949219 23.21875 M 106.785156 23.21875 L 107 23.433594 L 106.785156 23.21875 M 109.792969 23.21875 L 110.007812 23.433594 L 109.792969 23.21875 M 126.121094 23.21875 L 126.335938 23.433594 L 126.121094 23.21875 M 15.898438 23.433594 L 16.113281 23.648438 L 15.898438 23.433594 M 16.328125 23.433594 L 16.542969 23.648438 L 16.328125 23.433594 M 17.617188 23.433594 L 17.832031 23.648438 L 17.617188 23.433594 M 39.105469 23.433594 L 39.320312 23.648438 L 39.105469 23.433594 M 44.261719 23.433594 L 44.476562 23.648438 L 44.261719 23.433594 M 49.417969 23.433594 L 49.632812 23.648438 L 49.417969 23.433594 M 56.292969 23.433594 L 56.507812 23.648438 L 56.292969 23.433594 M 69.613281 23.433594 L 69.828125 23.648438 L 69.613281 23.433594 M 71.332031 23.433594 L 71.546875 23.648438 L 71.332031 23.433594 M 99.265625 23.433594 L 99.480469 23.648438 L 99.265625 23.433594 M 102.273438 23.433594 L 102.488281 23.648438 L 102.273438 23.433594 M 14.609375 23.648438 L 14.824219 23.863281 L 14.609375 23.648438 M 26.640625 23.648438 L 26.855469 23.863281 L 26.640625 23.648438 M 44.476562 23.648438 L 44.691406 23.863281 L 44.476562 23.648438 M 49.203125 23.648438 L 49.417969 23.863281 L 49.203125 23.648438 M 50.921875 23.648438 L 51.136719 23.863281 L 50.921875 23.648438 M 69.828125 23.648438 L 70.042969 23.863281 L 69.828125 23.648438 M 89.164062 23.648438 L 89.378906 23.863281 L 89.164062 23.648438 M 15.683594 23.863281 L 15.898438 24.078125 L 15.683594 23.863281 M 16.542969 23.863281 L 16.757812 24.078125 L 16.542969 23.863281 M 26.425781 23.863281 L 26.640625 24.078125 L 26.425781 23.863281 M 36.957031 23.863281 L 37.171875 24.078125 L 36.957031 23.863281 M 50.707031 23.863281 L 50.921875 24.078125 L 50.707031 23.863281 M 58.441406 23.863281 L 58.65625 24.078125 L 58.441406 23.863281 M 89.378906 23.863281 L 89.59375 24.078125 L 89.378906 23.863281 M 106.570312 23.863281 L 106.785156 24.078125 L 106.570312 23.863281 M 109.578125 23.863281 L 109.792969 24.078125 L 109.578125 23.863281 M 14.394531 24.078125 L 14.609375 24.296875 L 14.394531 24.078125 M 17.832031 24.078125 L 18.046875 24.296875 L 17.832031 24.078125 M 24.707031 24.078125 L 24.921875 24.296875 L 24.707031 24.078125 M 26.210938 24.078125 L 26.425781 24.296875 L 26.210938 24.078125 M 71.546875 24.078125 L 71.761719 24.296875 L 71.546875 24.078125 M 99.480469 24.078125 L 99.695312 24.296875 L 99.480469 24.078125 M 102.488281 24.078125 L 102.703125 24.296875 L 102.488281 24.078125 M 125.761719 24.222656 L 125.835938 24.367188 L 125.761719 24.222656 M 129.128906 24.078125 L 129.34375 24.296875 L 129.128906 24.078125 M 130.347656 24.152344 L 130.488281 24.222656 L 130.347656 24.152344 M 25.996094 24.296875 L 26.210938 24.511719 L 25.996094 24.296875 M 48.773438 24.296875 L 48.988281 24.511719 L 48.773438 24.296875 M 50.277344 24.296875 L 50.492188 24.511719 L 50.277344 24.296875 M 89.59375 24.296875 L 89.808594 24.511719 L 89.59375 24.296875 M 109.363281 24.296875 L 109.578125 24.511719 L 109.363281 24.296875 M 120.535156 26.445312 L 120.535156 26.230469 L 116.882812 26.230469 L 116.882812 24.511719 L 121.179688 24.511719 C 120.292969 24.136719 118.054688 23.988281 117.164062 24.425781 C 116.574219 24.714844 116.503906 25.820312 117.011719 26.222656 C 117.742188 26.804688 119.640625 26.445312 120.535156 26.445312 M 131.0625 24.296875 L 131.277344 24.511719 L 131.0625 24.296875 M 136.648438 24.296875 L 136.648438 24.511719 L 139.441406 24.511719 L 136.648438 24.296875 M 142.878906 24.296875 L 142.878906 24.511719 L 145.671875 24.511719 L 142.878906 24.296875 M 16.757812 24.511719 L 16.972656 24.726562 L 16.757812 24.511719 M 18.046875 24.511719 L 18.261719 24.726562 L 18.046875 24.511719 M 36.527344 24.511719 L 36.742188 24.726562 L 36.527344 24.511719 M 50.0625 24.511719 L 50.277344 24.726562 L 50.0625 24.511719 M 58.871094 24.511719 L 59.085938 24.726562 L 58.871094 24.511719 M 70.328125 24.652344 L 70.402344 24.796875 L 70.328125 24.652344 M 106.355469 24.511719 L 106.570312 24.726562 L 106.355469 24.511719 M 128.484375 24.511719 L 128.699219 24.726562 L 128.484375 24.511719 M 139.65625 24.511719 L 139.65625 32.894531 L 139.871094 32.894531 C 139.871094 30.492188 140.582031 26.71875 139.65625 24.511719 M 142.449219 24.511719 L 142.664062 24.726562 L 142.449219 24.511719 M 14.179688 24.726562 L 14.394531 24.941406 L 14.179688 24.726562 M 37.816406 24.726562 L 38.03125 24.941406 L 37.816406 24.726562 M 48.558594 24.726562 L 48.773438 24.941406 L 48.558594 24.726562 M 57.582031 24.726562 L 57.796875 24.941406 L 57.582031 24.726562 M 99.695312 24.726562 L 99.910156 24.941406 L 99.695312 24.726562 M 102.703125 24.726562 L 102.917969 24.941406 L 102.703125 24.726562 M 131.921875 24.726562 L 132.136719 24.941406 L 131.921875 24.726562 M 15.253906 24.941406 L 15.46875 25.15625 L 15.253906 24.941406 M 16.972656 24.941406 L 17.1875 25.15625 L 16.972656 24.941406 M 24.277344 24.941406 L 24.492188 25.15625 L 24.277344 24.941406 M 36.3125 24.941406 L 36.527344 25.15625 L 36.3125 24.941406 M 49.847656 24.941406 L 50.0625 25.15625 L 49.847656 24.941406 M 59.085938 24.941406 L 59.300781 25.15625 L 59.085938 24.941406 M 90.023438 24.941406 L 90.238281 25.15625 L 90.023438 24.941406 M 109.148438 24.941406 L 109.363281 25.15625 L 109.148438 24.941406 M 13.964844 25.15625 L 14.179688 25.371094 L 13.964844 25.15625 M 37.601562 25.15625 L 37.816406 25.371094 L 37.601562 25.15625 M 48.34375 25.15625 L 48.558594 25.371094 L 48.34375 25.15625 M 57.796875 25.15625 L 58.011719 25.371094 L 57.796875 25.15625 M 99.910156 25.15625 L 100.125 25.371094 L 99.910156 25.15625 M 106.140625 25.15625 L 106.355469 25.371094 L 106.140625 25.15625 M 128.484375 25.15625 L 128.699219 25.371094 L 128.484375 25.15625 M 15.039062 25.371094 L 15.253906 25.585938 L 15.039062 25.371094 M 24.0625 25.371094 L 24.277344 25.585938 L 24.0625 25.371094 M 49.632812 25.371094 L 49.847656 25.585938 L 49.632812 25.371094 M 70.328125 25.511719 L 70.402344 25.65625 L 70.328125 25.511719 M 102.917969 25.371094 L 103.132812 25.585938 L 102.917969 25.371094 M 18.476562 25.585938 L 18.691406 25.800781 L 18.476562 25.585938 M 25.351562 25.585938 L 25.566406 25.800781 L 25.351562 25.585938 M 36.167969 25.726562 L 36.238281 25.871094 L 36.167969 25.726562 M 58.011719 25.585938 L 58.226562 25.800781 L 58.011719 25.585938 M 59.300781 25.585938 L 59.515625 25.800781 L 59.300781 25.585938 M 90.453125 25.585938 L 90.667969 25.800781 L 90.453125 25.585938 M 108.933594 25.585938 L 109.148438 25.800781 L 108.933594 25.585938 M 128.914062 25.585938 L 129.128906 25.800781 L 128.914062 25.585938 M 37.386719 25.800781 L 37.601562 26.015625 L 37.386719 25.800781 M 100.125 25.800781 L 100.339844 26.015625 L 100.125 25.800781 M 103.203125 25.945312 L 103.273438 26.085938 L 103.203125 25.945312 M 105.925781 25.800781 L 106.140625 26.015625 L 105.925781 25.800781 M 125.761719 25.945312 L 125.835938 26.085938 L 125.761719 25.945312 M 129.34375 25.800781 L 129.558594 26.015625 L 129.34375 25.800781 M 14.824219 26.015625 L 15.039062 26.230469 L 14.824219 26.015625 M 17.402344 26.015625 L 17.617188 26.230469 L 17.402344 26.015625 M 18.691406 26.015625 L 18.90625 26.230469 L 18.691406 26.015625 M 48.128906 26.015625 L 48.34375 26.230469 L 48.128906 26.015625 M 49.417969 26.015625 L 49.632812 26.230469 L 49.417969 26.015625 M 71.546875 26.015625 L 71.761719 26.230469 L 71.546875 26.015625 M 108.71875 26.015625 L 108.933594 26.230469 L 108.71875 26.015625 M 130.132812 26.085938 L 130.273438 26.160156 L 130.132812 26.085938 M 13.535156 26.230469 L 13.75 26.445312 L 13.535156 26.230469 M 23.847656 26.230469 L 23.847656 26.875 L 24.0625 26.875 L 23.847656 26.230469 M 25.210938 26.375 L 25.28125 26.515625 L 25.210938 26.375 M 70.042969 26.230469 L 70.257812 26.445312 L 70.042969 26.230469 M 90.882812 26.230469 L 91.097656 26.445312 L 90.882812 26.230469 M 130.847656 26.230469 L 131.0625 26.445312 L 130.847656 26.230469 M 14.609375 26.445312 L 14.824219 26.660156 L 14.609375 26.445312 M 17.617188 26.445312 L 17.832031 26.660156 L 17.617188 26.445312 M 58.226562 26.445312 L 58.226562 28.378906 L 58.441406 28.378906 L 58.226562 26.445312 M 59.515625 26.445312 L 59.515625 28.378906 L 59.730469 28.378906 L 59.515625 26.445312 M 87.875 26.445312 L 87.875 32.894531 L 88.089844 32.894531 L 87.875 26.445312 M 100.339844 26.445312 L 100.554688 26.660156 L 100.339844 26.445312 M 103.347656 26.445312 L 103.5625 26.660156 L 103.347656 26.445312 M 105.710938 26.445312 L 105.925781 26.660156 L 105.710938 26.445312 M 120.535156 26.445312 L 120.535156 28.378906 L 120.75 28.378906 L 120.535156 26.445312 M 13.320312 26.660156 L 13.535156 26.875 L 13.320312 26.660156 M 18.90625 26.660156 L 19.121094 26.875 L 18.90625 26.660156 M 35.882812 26.660156 L 35.882812 28.164062 L 36.097656 28.164062 L 35.882812 26.660156 M 37.171875 26.660156 L 37.171875 28.164062 L 37.386719 28.164062 Z M 37.171875 26.660156 "/>
<path style=" stroke:none;fill-rule:nonzero;fill:rgb(100%,100%,100%);fill-opacity:1;" d="M 87.875 26.660156 L 88.089844 26.875 Z M 87.875 26.660156 "/>
<path style=" stroke:none;fill-rule:nonzero;fill:rgb(63.137255%,63.137255%,63.137255%);fill-opacity:1;" d="M 108.503906 26.660156 L 108.71875 26.875 L 108.503906 26.660156 M 14.394531 26.875 L 14.609375 27.089844 L 14.394531 26.875 M 71.117188 26.875 L 71.332031 27.089844 L 71.117188 26.875 M 91.3125 26.875 L 91.527344 27.089844 L 91.3125 26.875 M 100.554688 26.875 L 100.769531 27.089844 L 100.554688 26.875 M 105.566406 27.019531 L 105.636719 27.160156 L 105.566406 27.019531 M 132.136719 26.875 L 132.351562 27.089844 L 132.136719 26.875 M 17.832031 27.089844 L 18.046875 27.304688 L 17.832031 27.089844 M 19.121094 27.089844 L 19.335938 27.304688 L 19.121094 27.089844 M 69.183594 27.089844 L 69.398438 27.304688 L 69.183594 27.089844 M 103.5625 27.089844 L 103.777344 27.304688 L 103.5625 27.089844 M 132.351562 27.089844 L 132.566406 27.304688 L 132.351562 27.089844 M 13.105469 27.304688 L 13.320312 27.519531 L 13.105469 27.304688 M 68.753906 27.304688 L 68.96875 27.519531 L 68.753906 27.304688 M 88.519531 27.304688 L 88.734375 27.519531 L 88.519531 27.304688 M 108.289062 27.304688 L 108.503906 27.519531 L 108.289062 27.304688 M 132.566406 27.304688 L 132.78125 27.519531 L 132.566406 27.304688 M 14.179688 27.519531 L 14.394531 27.734375 L 14.179688 27.519531 M 18.046875 27.519531 L 18.261719 27.734375 L 18.046875 27.519531 M 67.894531 27.519531 L 68.109375 27.734375 L 67.894531 27.519531 M 88.734375 27.519531 L 88.949219 27.734375 L 88.734375 27.519531 M 91.742188 27.519531 L 91.957031 27.734375 L 91.742188 27.519531 M 100.769531 27.519531 L 100.984375 27.734375 L 100.769531 27.519531 M 105.28125 27.519531 L 105.496094 27.734375 L 105.28125 27.519531 M 12.890625 27.734375 L 13.105469 27.949219 L 12.890625 27.734375 M 67.679688 27.734375 L 67.679688 28.808594 L 67.894531 28.808594 L 67.679688 27.734375 M 70.257812 27.734375 L 70.472656 27.949219 L 70.257812 27.734375 M 103.777344 27.734375 L 103.992188 27.949219 L 103.777344 27.734375 M 108.074219 27.734375 L 108.289062 27.949219 L 108.074219 27.734375 M 126.980469 27.734375 L 127.195312 27.949219 L 126.980469 27.734375 M 13.964844 27.949219 L 14.179688 28.164062 L 13.964844 27.949219 M 23.847656 27.949219 L 23.847656 28.59375 L 24.0625 28.59375 L 23.847656 27.949219 M 132.996094 27.949219 L 133.210938 28.164062 L 132.996094 27.949219 M 18.261719 28.164062 L 18.476562 28.378906 L 18.261719 28.164062 M 19.550781 28.164062 L 19.765625 28.378906 L 19.550781 28.164062 M 25.210938 28.308594 L 25.28125 28.453125 L 25.210938 28.308594 M 69.398438 28.164062 L 69.183594 28.59375 L 69.398438 28.164062 M 89.164062 28.164062 L 89.378906 28.378906 L 89.164062 28.164062 M 92.316406 28.238281 L 92.460938 28.308594 L 92.316406 28.238281 M 100.984375 28.164062 L 101.199219 28.378906 L 100.984375 28.164062 M 105.066406 28.164062 L 105.28125 28.378906 L 105.066406 28.164062 M 127.839844 28.164062 L 128.054688 28.378906 L 127.839844 28.164062 M 12.675781 28.378906 L 12.890625 28.59375 L 12.675781 28.378906 M 103.992188 28.378906 L 104.207031 28.59375 L 103.992188 28.378906 M 107.859375 28.378906 L 108.074219 28.59375 L 107.859375 28.378906 M 121.394531 30.53125 L 121.394531 30.316406 L 116.882812 30.316406 L 116.882812 28.59375 L 120.535156 28.59375 C 119.746094 28.265625 117.960938 28.117188 117.164062 28.507812 C 116.574219 28.800781 116.503906 29.90625 117.011719 30.308594 C 117.871094 30.988281 120.332031 30.53125 121.394531 30.53125 M 128.414062 28.453125 L 128.554688 28.523438 L 128.414062 28.453125 M 18.476562 28.59375 L 18.691406 28.808594 L 18.476562 28.59375 M 19.765625 28.59375 L 19.980469 28.808594 L 19.765625 28.59375 M 48.128906 28.59375 L 48.34375 28.808594 L 48.128906 28.59375 M 49.417969 28.59375 L 49.632812 28.808594 L 49.417969 28.59375 M 69.398438 28.59375 L 69.613281 28.808594 L 69.398438 28.59375 M 101.199219 28.59375 L 101.414062 28.808594 L 101.199219 28.59375 M 129.128906 28.59375 L 129.34375 28.808594 L 129.128906 28.59375 M 133.210938 28.59375 L 133.210938 29.238281 L 133.425781 29.238281 L 133.210938 28.59375 M 12.460938 28.808594 L 12.675781 29.023438 L 12.460938 28.808594 M 36.167969 28.953125 L 36.238281 29.097656 L 36.167969 28.953125 M 37.386719 28.808594 L 37.601562 29.023438 L 37.386719 28.808594 M 67.894531 28.808594 L 68.109375 29.023438 L 67.894531 28.808594 M 89.59375 28.808594 L 89.808594 29.023438 L 89.59375 28.808594 M 104.851562 28.808594 L 105.066406 29.023438 L 104.851562 28.808594 M 129.773438 28.808594 L 129.988281 29.023438 L 129.773438 28.808594 M 25.351562 29.023438 L 25.566406 29.238281 L 25.351562 29.023438 M 59.300781 29.023438 L 59.515625 29.238281 L 59.300781 29.023438 M 68.109375 29.023438 L 68.324219 29.238281 L 68.109375 29.023438 M 104.207031 29.023438 L 104.421875 29.238281 L 104.207031 29.023438 M 107.644531 29.023438 L 107.859375 29.238281 L 107.644531 29.023438 M 130.203125 29.023438 L 130.417969 29.238281 L 130.203125 29.023438 M 19.980469 29.238281 L 20.195312 29.453125 L 19.980469 29.238281 M 24.0625 29.238281 L 24.277344 29.453125 L 24.0625 29.238281 M 48.34375 29.238281 L 48.558594 29.453125 L 48.34375 29.238281 M 49.632812 29.238281 L 49.847656 29.453125 L 49.632812 29.238281 M 101.414062 29.238281 L 101.628906 29.453125 L 101.414062 29.238281 M 37.601562 29.453125 L 37.816406 29.671875 L 37.601562 29.453125 M 57.796875 29.453125 L 58.011719 29.671875 L 57.796875 29.453125 M 90.023438 29.453125 L 90.238281 29.671875 L 90.023438 29.453125 M 104.636719 29.453125 L 104.421875 29.886719 L 104.636719 29.453125 M 107.429688 29.453125 L 107.644531 29.671875 L 107.429688 29.453125 M 130.417969 29.453125 L 130.632812 29.671875 L 130.417969 29.453125 M 20.195312 29.671875 L 20.410156 29.886719 L 20.195312 29.671875 M 36.3125 29.671875 L 36.527344 29.886719 L 36.3125 29.671875 M 49.847656 29.671875 L 50.0625 29.886719 L 49.847656 29.671875 M 59.085938 29.671875 L 59.300781 29.886719 L 59.085938 29.671875 M 90.238281 29.671875 L 90.453125 29.886719 L 90.238281 29.671875 M 12.03125 29.886719 L 12.246094 30.101562 L 12.03125 29.886719 M 25.78125 29.886719 L 25.996094 30.101562 L 25.78125 29.886719 M 48.558594 29.886719 L 48.773438 30.101562 L 48.558594 29.886719 M 57.582031 29.886719 L 57.796875 30.101562 L 57.582031 29.886719 M 70.472656 29.886719 L 70.6875 30.101562 L 70.472656 29.886719 M 101.628906 29.886719 L 101.84375 30.101562 L 101.628906 29.886719 M 126.550781 29.886719 L 126.765625 30.101562 L 126.550781 29.886719 M 130.417969 29.886719 L 130.632812 30.101562 L 130.417969 29.886719 M 133.210938 29.886719 L 133.210938 30.53125 L 133.425781 30.53125 L 133.210938 29.886719 M 36.527344 30.101562 L 36.742188 30.316406 L 36.527344 30.101562 M 38.03125 30.101562 L 38.246094 30.316406 L 38.03125 30.101562 M 58.871094 30.101562 L 59.085938 30.316406 L 58.871094 30.101562 M 70.6875 30.101562 L 70.902344 30.316406 L 70.6875 30.101562 M 107.214844 30.101562 L 107.429688 30.316406 L 107.214844 30.101562 M 126.980469 30.101562 L 127.195312 30.316406 L 126.980469 30.101562 M 11.816406 30.316406 L 12.03125 30.53125 L 11.816406 30.316406 M 19.121094 30.316406 L 19.335938 30.53125 L 19.121094 30.316406 M 48.773438 30.316406 L 48.988281 30.53125 L 48.773438 30.316406 M 50.277344 30.316406 L 50.492188 30.53125 L 50.277344 30.316406 M 69.183594 30.316406 L 69.398438 30.53125 L 69.183594 30.316406 M 70.902344 30.316406 L 71.117188 30.53125 L 70.902344 30.316406 M 90.667969 30.316406 L 90.882812 30.53125 L 90.667969 30.316406 M 101.84375 30.316406 L 102.058594 30.53125 L 101.84375 30.316406 M 127.410156 30.316406 L 127.625 30.53125 L 127.410156 30.316406 M 24.707031 30.53125 L 24.921875 30.746094 L 24.707031 30.53125 M 26.210938 30.53125 L 26.425781 30.746094 L 26.210938 30.53125 M 50.492188 30.53125 L 50.707031 30.746094 L 50.492188 30.53125 M 69.398438 30.53125 L 69.613281 30.746094 L 69.398438 30.53125 M 71.117188 30.53125 L 71.332031 30.746094 L 71.117188 30.53125 M 121.394531 30.53125 L 121.394531 32.894531 L 121.609375 32.894531 L 121.394531 30.53125 M 128.269531 30.53125 L 128.269531 30.746094 L 129.773438 30.746094 L 128.269531 30.53125 M 12.890625 30.746094 L 13.105469 30.960938 L 12.890625 30.746094 M 19.335938 30.746094 L 19.550781 30.960938 L 19.335938 30.746094 M 20.625 30.746094 L 20.839844 30.960938 L 20.625 30.746094 M 26.425781 30.746094 L 26.640625 30.960938 L 26.425781 30.746094 M 36.957031 30.746094 L 37.171875 30.960938 L 36.957031 30.746094 M 50.707031 30.746094 L 50.921875 30.960938 L 50.707031 30.746094 M 58.441406 30.746094 L 58.65625 30.960938 L 58.441406 30.746094 M 69.613281 30.746094 L 69.828125 30.960938 L 69.613281 30.746094 M 107 30.746094 L 107.214844 30.960938 L 107 30.746094 M 11.601562 30.960938 L 11.816406 31.175781 L 11.601562 30.960938 M 32.585938 31.03125 L 32.730469 31.101562 L 32.585938 31.03125 M 38.890625 30.960938 L 39.105469 31.175781 L 38.890625 30.960938 M 50.921875 30.960938 L 51.136719 31.175781 L 50.921875 30.960938 M 58.226562 30.960938 L 58.441406 31.175781 L 58.226562 30.960938 M 69.828125 30.960938 L 70.042969 31.175781 L 69.828125 30.960938 M 91.097656 30.960938 L 91.3125 31.175781 L 91.097656 30.960938 M 102.058594 30.960938 L 102.273438 31.175781 L 102.058594 30.960938 M 132.996094 30.960938 L 133.210938 31.175781 L 132.996094 30.960938 M 20.839844 31.175781 L 21.054688 31.390625 L 20.839844 31.175781 M 25.136719 31.175781 L 25.351562 31.390625 L 25.136719 31.175781 M 27.070312 31.175781 L 27.285156 31.390625 L 27.070312 31.175781 M 39.105469 31.175781 L 39.320312 31.390625 L 39.105469 31.175781 M 44.261719 31.175781 L 44.476562 31.390625 L 44.261719 31.175781 M 49.417969 31.175781 L 49.632812 31.390625 L 49.417969 31.175781 M 56.292969 31.175781 L 56.507812 31.390625 L 56.292969 31.175781 M 106.785156 31.175781 L 107 31.390625 L 106.785156 31.175781 M 11.386719 31.390625 L 11.601562 31.605469 L 11.386719 31.390625 M 12.675781 31.390625 L 12.890625 31.605469 L 12.675781 31.390625 M 19.550781 31.390625 L 19.765625 31.605469 L 19.550781 31.390625 M 25.351562 31.390625 L 25.566406 31.605469 L 25.351562 31.390625 M 31.800781 31.390625 L 32.015625 31.605469 L 31.800781 31.390625 M 39.535156 31.390625 L 39.75 31.605469 L 39.535156 31.390625 M 43.832031 31.390625 L 44.046875 31.605469 L 43.832031 31.390625 M 49.632812 31.390625 L 49.847656 31.605469 L 49.632812 31.390625 M 51.566406 31.390625 L 51.78125 31.605469 L 51.566406 31.390625 M 55.863281 31.390625 L 56.078125 31.605469 L 55.863281 31.390625 M 132.78125 31.390625 L 132.996094 31.605469 L 132.78125 31.390625 M 25.566406 31.605469 L 25.78125 31.820312 L 25.566406 31.605469 M 27.929688 31.605469 L 28.144531 31.820312 L 27.929688 31.605469 M 31.296875 31.675781 L 31.441406 31.75 L 31.296875 31.675781 M 39.964844 31.605469 L 40.179688 31.820312 L 39.964844 31.605469 M 43.402344 31.605469 L 43.617188 31.820312 L 43.402344 31.605469 M 49.847656 31.605469 L 50.0625 31.820312 L 49.847656 31.605469 M 52.210938 31.605469 L 52.425781 31.820312 L 52.210938 31.605469 M 55.433594 31.605469 L 55.648438 31.820312 L 55.433594 31.605469 M 91.527344 31.605469 L 91.742188 31.820312 L 91.527344 31.605469 M 102.273438 31.605469 L 102.488281 31.820312 L 102.273438 31.605469 M 132.566406 31.605469 L 132.78125 31.820312 L 132.566406 31.605469 M 12.460938 31.820312 L 12.675781 32.035156 L 12.460938 31.820312 M 19.765625 31.820312 L 19.980469 32.035156 L 19.765625 31.820312 M 21.054688 31.820312 L 21.269531 32.035156 L 21.054688 31.820312 M 28.574219 31.820312 L 28.574219 32.035156 L 29.21875 32.035156 L 28.574219 31.820312 M 30.4375 31.890625 L 30.582031 31.964844 L 30.4375 31.890625 M 40.964844 31.890625 L 41.109375 31.964844 L 40.964844 31.890625 M 42.46875 31.890625 L 42.613281 31.964844 L 42.46875 31.890625 M 53 31.890625 L 53.140625 31.964844 L 53 31.890625 M 54.503906 31.890625 L 54.644531 31.964844 L 54.503906 31.890625 M 57.367188 31.820312 L 57.582031 32.035156 L 57.367188 31.820312 M 91.742188 31.820312 L 91.957031 32.035156 L 91.742188 31.820312 M 106.570312 31.820312 L 106.785156 32.035156 L 106.570312 31.820312 M 11.171875 32.035156 L 11.386719 32.25 L 11.171875 32.035156 M 26.210938 32.035156 L 26.425781 32.25 L 26.210938 32.035156 M 38.246094 32.035156 L 38.460938 32.25 L 38.246094 32.035156 M 50.492188 32.035156 L 50.707031 32.25 L 50.492188 32.035156 M 72.40625 32.035156 L 72.621094 32.25 L 72.40625 32.035156 M 102.488281 32.035156 L 102.703125 32.25 L 102.488281 32.035156 M 132.136719 32.035156 L 132.351562 32.25 L 132.136719 32.035156 M 19.980469 32.25 L 20.195312 32.464844 L 19.980469 32.25 M 21.269531 32.25 L 21.484375 32.464844 L 21.269531 32.25 M 38.675781 32.25 L 38.890625 32.464844 L 38.675781 32.25 M 44.691406 32.25 L 44.90625 32.464844 L 44.691406 32.25 M 56.722656 32.25 L 56.9375 32.464844 L 56.722656 32.25 M 72.621094 32.25 L 72.835938 32.464844 L 72.621094 32.25 M 125.90625 32.25 L 126.121094 32.464844 L 125.90625 32.25 M 131.921875 32.25 L 132.136719 32.464844 L 131.921875 32.25 M 10.957031 32.464844 L 11.171875 32.679688 L 10.957031 32.464844 M 12.246094 32.464844 L 12.460938 32.679688 L 12.246094 32.464844 M 26.855469 32.464844 L 27.070312 32.679688 L 26.855469 32.464844 M 39.105469 32.464844 L 39.320312 32.679688 L 39.105469 32.464844 M 44.261719 32.464844 L 44.476562 32.679688 L 44.261719 32.464844 M 51.136719 32.464844 L 51.351562 32.679688 L 51.136719 32.464844 M 56.292969 32.464844 L 56.507812 32.679688 L 56.292969 32.464844 M 71.117188 32.464844 L 71.332031 32.679688 L 71.117188 32.464844 M 72.835938 32.464844 L 73.050781 32.679688 L 72.835938 32.464844 M 92.171875 32.464844 L 92.386719 32.679688 L 92.171875 32.464844 M 106.355469 32.464844 L 106.570312 32.679688 L 106.355469 32.464844 M 126.335938 32.464844 L 126.550781 32.679688 L 126.335938 32.464844 M 131.492188 32.464844 L 131.707031 32.679688 L 131.492188 32.464844 M 27.5 32.679688 L 27.714844 32.894531 L 27.5 32.679688 M 31.585938 32.679688 L 31.800781 32.894531 L 31.585938 32.679688 M 39.535156 32.679688 L 39.75 32.894531 L 39.535156 32.679688 M 43.617188 32.679688 L 43.832031 32.894531 L 43.617188 32.679688 M 51.78125 32.679688 L 51.996094 32.894531 L 51.78125 32.679688 M 55.792969 32.75 L 55.933594 32.824219 L 55.792969 32.75 M 71.332031 32.679688 L 71.546875 32.894531 L 71.332031 32.679688 M 102.703125 32.679688 L 102.917969 32.894531 L 102.703125 32.679688 M 126.910156 32.75 L 127.050781 32.824219 L 126.910156 32.75 M 131.0625 32.679688 L 131.277344 32.894531 L 131.0625 32.679688 M 142.449219 32.679688 L 142.664062 32.894531 L 142.449219 32.679688 M 28.289062 32.964844 L 28.433594 33.039062 L 28.289062 32.964844 M 30.867188 32.964844 L 31.011719 33.039062 L 30.867188 32.964844 M 40.394531 32.894531 L 40.609375 33.109375 L 40.394531 32.894531 M 42.898438 32.964844 L 43.042969 33.039062 L 42.898438 32.964844 M 52.570312 32.964844 L 52.710938 33.039062 L 52.570312 32.964844 M 54.933594 32.964844 L 55.074219 33.039062 L 54.933594 32.964844 M 127.769531 32.964844 L 127.910156 33.039062 L 127.769531 32.964844 M 130.203125 32.894531 L 130.417969 33.109375 Z M 130.203125 32.894531 "/>
</g>
</svg>
