<svg id="Group_10" data-name="Group 10" xmlns="http://www.w3.org/2000/svg" width="154.461" height="60.686" viewBox="0 0 154.461 60.686">
  <g id="Group_16" data-name="Group 16">
    <path id="Exclusion_1" data-name="Exclusion 1" d="M-2.863-2738.625l6.521.035a12.654,12.654,0,0,1,8.988,3.683,12,12,0,0,1,3.877,9.058,12.658,12.658,0,0,1-3.789,9.217,12.418,12.418,0,0,1-9.182,3.842H-2.9q-2.15,0-2.679-.881A4.682,4.682,0,0,1-6-2715.927v-19.6a10.176,10.176,0,0,1,.053-1.234,2.842,2.842,0,0,1,.335-.917Q-5.119-2738.625-2.863-2738.625Zm6.521,19.6a6.592,6.592,0,0,0,4.582-1.885,6.176,6.176,0,0,0,2.044-4.741,6.367,6.367,0,0,0-1.991-4.776,6.511,6.511,0,0,0-4.67-1.921H.239v13.323Zm15.156-9.2a10.242,10.242,0,0,1,.053-1.216,3.266,3.266,0,0,1,.3-.934q.493-.917,2.749-.917a3.727,3.727,0,0,1,2.4.6,1.943,1.943,0,0,1,.634,1.516q.035.353.035,1.022v12.336a10.24,10.24,0,0,1-.053,1.216,2.823,2.823,0,0,1-.335.934q-.458.917-2.714.917-2.221,0-2.714-.952a3.294,3.294,0,0,1-.3-.917,10.171,10.171,0,0,1-.053-1.233Zm5.8-6.538a1.494,1.494,0,0,1-.934.722,6.079,6.079,0,0,1-1.78.212,6.079,6.079,0,0,1-1.78-.212,1.478,1.478,0,0,1-.934-.74,3.024,3.024,0,0,1-.317-.934,10.24,10.24,0,0,1-.053-1.216,10.24,10.24,0,0,1,.053-1.216,2.879,2.879,0,0,1,.3-.9q.493-.952,2.749-.952,2.221,0,2.679.952a2.824,2.824,0,0,1,.335.934,10.238,10.238,0,0,1,.053,1.216,10.24,10.24,0,0,1-.053,1.216A2.846,2.846,0,0,1,24.611-2734.766Zm14.962,19.685a5.013,5.013,0,0,1-4.265,1.762,7.513,7.513,0,0,1-5.481-2.7,8.859,8.859,0,0,1-2.555-6.292,8.887,8.887,0,0,1,2.573-6.309,7.673,7.673,0,0,1,5.639-2.714,5.3,5.3,0,0,1,2.185.44,4.758,4.758,0,0,1,1.357.811,4.639,4.639,0,0,1,.582.687,2.15,2.15,0,0,1,.723-1.5,3.115,3.115,0,0,1,1.991-.511,6.911,6.911,0,0,1,2.009.211,1.485,1.485,0,0,1,.9.723,2.859,2.859,0,0,1,.317.9,9.772,9.772,0,0,1,.053,1.2v14.592a8.294,8.294,0,0,1-2.82,6.538,9.348,9.348,0,0,1-6.344,2.485,10.666,10.666,0,0,1-5.111-1.3q-2.432-1.3-2.432-2.362a3.343,3.343,0,0,1,1.057-2.432,8.822,8.822,0,0,1,1.04-1.022,1.385,1.385,0,0,1,.864-.282,1.657,1.657,0,0,1,1.022.423,5.883,5.883,0,0,0,3.666,1.3,2.671,2.671,0,0,0,2.185-1.057,3.936,3.936,0,0,0,.846-2.538Zm-6.274-7.208a2.875,2.875,0,0,0,.9,2.062,2.946,2.946,0,0,0,2.185.916,2.754,2.754,0,0,0,2.132-.934,2.986,2.986,0,0,0,.846-2.044,3.185,3.185,0,0,0-.811-2.079,2.7,2.7,0,0,0-2.185-.969,2.829,2.829,0,0,0-2.221.952A3.088,3.088,0,0,0,33.3-2722.289Zm15.121-5.939a10.243,10.243,0,0,1,.053-1.216,3.266,3.266,0,0,1,.3-.934q.493-.917,2.749-.917a3.727,3.727,0,0,1,2.4.6,1.943,1.943,0,0,1,.634,1.516q.035.353.035,1.022v12.336a10.241,10.241,0,0,1-.053,1.216,2.823,2.823,0,0,1-.335.934q-.458.917-2.714.917-2.221,0-2.714-.952a3.294,3.294,0,0,1-.3-.917,10.172,10.172,0,0,1-.053-1.233Zm5.8-6.538a1.494,1.494,0,0,1-.934.722,6.079,6.079,0,0,1-1.78.212,6.079,6.079,0,0,1-1.78-.212,1.478,1.478,0,0,1-.934-.74,3.024,3.024,0,0,1-.317-.934,10.241,10.241,0,0,1-.053-1.216,10.241,10.241,0,0,1,.053-1.216,2.879,2.879,0,0,1,.3-.9q.493-.952,2.749-.952,2.221,0,2.679.952a2.825,2.825,0,0,1,.335.934,10.239,10.239,0,0,1,.053,1.216,10.241,10.241,0,0,1-.053,1.216A2.846,2.846,0,0,1,54.218-2734.766Z" transform="translate(32.118 2765.439)" fill="#00c691"/>
    <g id="Layer_2" data-name="Layer 2">
      <g id="Layer_1" data-name="Layer 1" transform="translate(0 0)">
        <path id="Path_260" data-name="Path 260" d="M32.285,49.92H22.434a2.475,2.475,0,0,1-2.475-2.475V21.353a2.475,2.475,0,0,1,2.475-2.475H55.8v3.836A2.381,2.381,0,0,0,58.186,25.1h.206a2.381,2.381,0,0,0,2.372-2.381V11.378A7.434,7.434,0,0,0,53.33,4H43.449A7.5,7.5,0,0,0,37.5,6.972l-5.2,6.947H22.434A7.434,7.434,0,0,0,15,21.353V47.445a7.434,7.434,0,0,0,7.434,7.434h9.851A2.475,2.475,0,0,0,34.769,52.4h0a2.484,2.484,0,0,0-2.484-2.484ZM41.433,9.953a2.447,2.447,0,0,1,2.016-.994H53.33A2.475,2.475,0,0,1,55.8,11.434v2.484H38.452Z" transform="translate(-15 -4)" fill="#00c691"/>
      </g>
    </g>
    <path id="Subtraction_2" data-name="Subtraction 2" d="M-2.334,13H-6.666a8.07,8.07,0,0,1-.071-1.067V8a8.009,8.009,0,0,1,8-8,8.009,8.009,0,0,1,8,8v3.931A8.07,8.07,0,0,1,9.193,13H4.862a3.771,3.771,0,0,0,.191-1.19V8.123a3.79,3.79,0,0,0-7.58,0v3.686A3.773,3.773,0,0,0-2.335,13Z" transform="translate(125.198 25.44)"/>
    <path id="Path_263" data-name="Path 263" d="M103.553-35.232l6.521.035a12.653,12.653,0,0,1,8.988,3.683,12,12,0,0,1,3.877,9.058,12.659,12.659,0,0,1-3.789,9.217A12.418,12.418,0,0,1,109.968-9.4h-6.45q-2.15,0-2.679-.881a4.683,4.683,0,0,1-.423-2.256v-19.6a10.179,10.179,0,0,1,.053-1.234,2.842,2.842,0,0,1,.335-.916Q101.3-35.232,103.553-35.232Zm6.521,19.6a6.592,6.592,0,0,0,4.582-1.886,6.176,6.176,0,0,0,2.044-4.741,6.366,6.366,0,0,0-1.991-4.776,6.511,6.511,0,0,0-4.67-1.921h-3.384v13.323Zm14.627-3a9.109,9.109,0,0,1,2.961-6.979,9.666,9.666,0,0,1,6.767-2.749,9.576,9.576,0,0,1,6.732,2.732,9.106,9.106,0,0,1,2.925,6.961,9.156,9.156,0,0,1-1.516,5.2,9.5,9.5,0,0,1-3.683,3.348,10,10,0,0,1-4.494,1.075,9.6,9.6,0,0,1-4.512-1.146,10.005,10.005,0,0,1-3.683-3.384A8.887,8.887,0,0,1,124.7-18.631Zm7.366,2.52a3.745,3.745,0,0,0,2.291.864,3.844,3.844,0,0,0,2.326-.881,3.067,3.067,0,0,0,1.163-2.608,3.05,3.05,0,0,0-1.093-2.573,3.781,3.781,0,0,0-2.361-.846,3.689,3.689,0,0,0-2.361.881,3.131,3.131,0,0,0-1.093,2.591A3.038,3.038,0,0,0,132.067-16.111Zm20.126-2.538a2.87,2.87,0,0,0,.987,2.326,3.213,3.213,0,0,0,2.1.828,3.657,3.657,0,0,0,2.08-.652,3.1,3.1,0,0,1,1.568-.652q1.057,0,2.573,1.868a3.1,3.1,0,0,1,.811,1.833q0,1.339-1.939,2.5a8.375,8.375,0,0,1-4.934,1.41,10.142,10.142,0,0,1-6.309-2.361,8.4,8.4,0,0,1-2.361-3.014,9.387,9.387,0,0,1-.916-4.159,9.164,9.164,0,0,1,.916-4.124,8.468,8.468,0,0,1,2.361-2.978,9.853,9.853,0,0,1,6.239-2.326,9.268,9.268,0,0,1,2.608.37,8.718,8.718,0,0,1,1.868.723l.564.352q.634.423.987.67a2.014,2.014,0,0,1,.916,1.6,3.809,3.809,0,0,1-.74,2.027q-1.269,1.939-2.432,1.939a4.083,4.083,0,0,1-1.9-.775,2.543,2.543,0,0,0-1.815-.6,3.391,3.391,0,0,0-2.2.846A2.876,2.876,0,0,0,152.193-18.649Z" transform="translate(-7.847 62.046)"/>
  </g>
  <circle id="Ellipse_1" data-name="Ellipse 1" cx="2" cy="2" r="2" transform="translate(124.627 41.576)" fill="#1a1a1a"/>
  <rect id="Rectangle_5" data-name="Rectangle 5" width="4" height="6" rx="2" transform="translate(124.627 45.576)" fill="#1a1a1a"/>
</svg>
