<?xml version="1.0" encoding="utf-8"?>
<!-- Generator: Adobe Illustrator 21.0.2, SVG Export Plug-In . SVG Version: 6.00 Build 0)  -->
<svg version="1.1" id="Layer_3" xmlns="http://www.w3.org/2000/svg" xmlns:xlink="http://www.w3.org/1999/xlink" x="0px" y="0px"
	 width="400px" height="196px" viewBox="0 0 400 196" style="enable-background:new 0 0 400 196;" xml:space="preserve">
<style type="text/css">
	.st0{fill:#9A006A;}
	.st1{fill:#6D6E71;}
</style>
<g>
	<g>
		<g>
			<g>
				<path class="st0" d="M398.3,77.4c0.7,0.7,1.1,1.6,1.1,2.7c0,1-0.4,1.9-1.1,2.7c-0.7,0.7-1.6,1.1-2.7,1.1c-1,0-1.9-0.4-2.6-1.1
					c-0.7-0.7-1.1-1.6-1.1-2.7c0-1,0.4-1.9,1.1-2.7c0.7-0.7,1.6-1.1,2.6-1.1C396.7,76.4,397.6,76.7,398.3,77.4 M398.7,77
					c-0.9-0.8-1.9-1.3-3.1-1.3c-1.2,0-2.2,0.4-3.1,1.3c-0.8,0.9-1.3,1.9-1.3,3.1c0,1.2,0.4,2.2,1.3,3.1c0.8,0.9,1.9,1.3,3.1,1.3
					c1.2,0,2.2-0.4,3.1-1.3c0.8-0.8,1.3-1.9,1.3-3.1C400,78.9,399.6,77.9,398.7,77 M396.3,79.9c-0.2,0.1-0.4,0.1-0.8,0.1h-0.8v-1.7
					h0.7c0.5,0,0.8,0.1,1,0.2c0.2,0.1,0.3,0.4,0.3,0.7C396.8,79.5,396.6,79.8,396.3,79.9 M393.9,82.5h0.8v-1.9h0.7
					c0.4,0,0.8,0.1,0.9,0.2c0.3,0.2,0.5,0.5,0.5,1.1v0.4l0,0.3h0.8c0-0.1-0.1-0.2-0.1-0.3c0-0.1,0-0.2,0-0.4v-0.3
					c0-0.3-0.1-0.5-0.3-0.7c-0.2-0.3-0.5-0.4-0.8-0.5c0.3,0,0.5-0.1,0.7-0.2c0.3-0.2,0.5-0.5,0.5-0.9c0-0.6-0.2-1-0.7-1.2
					c-0.3-0.1-0.7-0.2-1.3-0.2h-1.7V82.5z"/>
			</g>
			<g>
				<path class="st0" d="M74,94.8c0,11.7,4.3,15.4,8.1,15.4c3.2,0,8.2-2.5,8.2-15.6c0-4.8-0.5-15.7-7.9-15.7
					C77.4,79,74,83.8,74,94.8L74,94.8z M67.1,94.6c0-13,7.3-19.4,15.4-19.4c6.7,0,14.7,4.3,14.7,18.9c0,12.9-6.6,19.9-15.3,19.9
					C73.8,114.1,67.1,107.7,67.1,94.6L67.1,94.6z"/>
				<polygon class="st0" points="110.2,75.7 116.3,102.6 122.8,75.7 126.8,75.7 133.1,102.5 139.2,75.7 143.7,75.7 134.4,113.5 
					130.3,113.5 123.9,86 117.2,113.5 113.1,113.5 103.7,75.7 				"/>
				<polygon class="st0" points="157.7,75.7 175.1,102.5 175.1,75.7 179.7,75.7 179.7,113.5 175.5,113.5 158.1,86.8 158.1,113.5 
					153.6,113.5 153.6,75.7 				"/>
				<polygon class="st0" points="211.5,75.7 211.5,79.8 198,79.8 198,92 210.6,92 210.6,95.9 198,95.9 198,109.3 211.7,109.3 
					211.7,113.5 191.7,113.5 191.7,75.7 				"/>
				<path class="st0" d="M23.4,80.9l-0.3-0.1c-1.5-0.7-3.6-1.6-6.1-1.6c-5.7,0-10,5.6-10,15.4c0,10.9,4.8,15.4,9.6,15.4
					c2.6,0,4.9-1.2,6.4-2.1l0.3-0.2l1.9,3.5l-0.3,0.2c-2,1.1-5,2.5-9.3,2.5C5.3,114.1,0,105.2,0,94.8c0-10.6,5.7-19.6,16.4-19.6
					c2.6,0,5.5,0.4,8.3,1.9l0.3,0.1L23.4,80.9z"/>
				<path class="st0" d="M41.9,79.6v13.4h1.9c3,0,8.1,0,8.1-7.3c0-3.2-1.1-4.7-2.5-5.4c-0.7-0.4-1.6-0.6-2.5-0.7
					c-0.9-0.1-1.9-0.1-2.7-0.1H41.9z M44.6,75.7c4,0,6.6,0,9.4,1.6c3.5,1.9,4.4,5.5,4.4,7.7c0,4.2-2.2,8.9-8.9,10.5l12.4,17.9h-7.4
					l-10.8-17h-1.8v17h-6.3V75.7H44.6z"/>
				<path class="st0" d="M375.7,97.4h8l-4-12.7L375.7,97.4z M382.7,75.7l12.9,37.8h-6.7l-4-12.3h-10.4l-3.9,12.3h-4.7l12.8-37.8
					H382.7z"/>
				<g>
					<path class="st0" d="M245.7,79.6V93h3.4c3.6,0,7.5-0.6,7.5-7.3c0-3.2-1.1-4.6-2.5-5.3c-0.7-0.4-1.6-0.5-2.4-0.6
						c-0.9-0.1-1.8-0.1-2.6-0.1H245.7z M249.4,75.7c4.4,0,7.4,0.1,10.1,1.9c3.4,2.2,3.9,6,3.9,8c0,5.6-3.7,11.3-13.1,11.3h-4.6v16.5
						h-6.3V75.7H249.4z"/>
				</g>
				<polygon class="st0" points="277.7,75.7 277.7,109.4 291,109.4 291,113.5 271.4,113.5 271.4,75.7 				"/>
				<path class="st0" d="M307,97.4h8l-4-12.7L307,97.4z M314,75.7l12.9,37.8h-6.7l-4-12.3h-10.4l-3.9,12.3h-4.7L310,75.7H314z"/>
				<polygon class="st0" points="358.8,75.7 358.8,79 340.7,109.3 359.8,109.3 359.8,113.5 333.2,113.5 333.2,110.3 351.5,79.8 
					334.3,79.8 334.3,75.7 				"/>
			</g>
		</g>
	</g>
	<path class="st1" d="M199.1,137.3c0-0.3-0.2-0.5-0.6-0.5h-0.4v1h0.4C198.9,137.8,199.1,137.6,199.1,137.3L199.1,137.3z M200,139.6
		h-0.8l-0.8-1.3h-0.3v1.3h-0.7v-3.3h1.2c0.8,0,1.3,0.3,1.3,1v0c0,0.5-0.3,0.8-0.7,0.9L200,139.6z M201.3,138c0-1.6-1.1-2.8-2.7-2.8
		c-1.6,0-2.7,1.2-2.7,2.8c0,1.7,1.2,2.8,2.7,2.8C200.1,140.7,201.3,139.6,201.3,138 M201.9,138c0,1.9-1.5,3.3-3.3,3.3
		c-1.8,0-3.3-1.4-3.3-3.3c0-1.8,1.5-3.3,3.3-3.3C200.4,134.7,201.9,136.1,201.9,138 M188.8,139.7l2.9-2.7c-0.8-1-1.9-1.8-3.2-2.3
		c-1.3-0.6-2.7-0.8-4.2-0.8c-1.8,0-3.5,0.4-5,1.2c-1.5,0.8-2.7,1.9-3.5,3.4c-0.9,1.5-1.3,3.2-1.3,5.2c0,1.9,0.4,3.6,1.2,5
		c0.8,1.5,2,2.6,3.5,3.5c1.5,0.9,3.2,1.3,5.1,1.3c1.8,0,3.4-0.4,4.8-1.2c1.4-0.8,2.6-1.9,3.5-3.4c0.9-1.4,1.3-3.1,1.3-5.1
		c0-0.7-0.1-1.4-0.2-2.2h-9.8v3.8h5.5c-0.1,1.2-0.6,2.1-1.6,2.9c-1,0.8-2.1,1.1-3.5,1.1c-1,0-2-0.2-2.8-0.7
		c-0.8-0.5-1.5-1.2-1.9-2.1c-0.5-0.9-0.7-1.9-0.7-3.2c0-1.2,0.2-2.2,0.7-3.1c0.4-0.9,1.1-1.6,1.9-2.1c0.8-0.5,1.8-0.8,2.9-0.8
		C185.9,137.8,187.4,138.4,188.8,139.7 M153.7,134.3h4.1v7.5h8.1v-7.5h4.1v18.9H166v-7.5h-8.1v7.5h-4.1V134.3z M148.3,153.1h-4.1
		v-18.9h4.1V153.1z M117.1,134.3h3l9.2,15.6v-15.6h2.2v18.9h-2.6l-9.5-16.2v16.2h-2.2V134.3z M100.5,145.9h6.6l-3.3-9.7L100.5,145.9
		z M102.4,134.3h3l6.4,18.9h-2.3l-1.8-5.4h-7.8l-1.8,5.4h-2.2L102.4,134.3z M288.6,134.3h2.3v17h8.6v1.9h-10.9V134.3z M270.8,134.3
		h11v1.9h-8.7v6.4h7v1.9h-7v6.8h9.2v1.9h-11.5V134.3z M257.5,136.1H252v-1.9h13.3v1.9h-5.5v17h-2.3V136.1z M246.4,143.7v-0.2
		c0-4.2-2.5-7.7-6.8-7.7c-4.4,0-6.9,3.2-6.9,7.7v0.2c0,4.6,3,7.7,7,7.7C243.8,151.5,246.4,148.3,246.4,143.7 M230.3,143.8v-0.2
		c0-5.4,3.8-9.6,9.3-9.6c5.5,0,9.2,4.2,9.2,9.5v0.2c0,5.3-3.7,9.6-9.2,9.6C234.1,153.4,230.3,149.1,230.3,143.8 M210.2,134.3h2.3
		v8.6h9.9v-8.6h2.3v18.9h-2.3v-8.4h-9.9v8.4h-2.3V134.3z"/>
	<g>
		<g>
			<path class="st0" d="M202.7,16.9c-2.2,6.3-14.3,0.4-20.5-2.5c-4.6-2.1-7.8-3.9-9.5-4.9l4.5,5.8H171c1.8,1,4.9,2.8,9.4,4.9
				c6.2,2.9,18.3,8.8,20.5,2.5c3.8-10.8,25.7,2.6,27.9,3.9l1.7-5.8C228.2,19.3,206.4,6.1,202.7,16.9z"/>
			<path class="st0" d="M199.6,27.2c-2.2,6.3-14.3,0.4-20.5-2.5c-4.6-2.2-7.8-3.9-9.5-5l4.6,5.8h-6.2c1.8,1,4.9,2.8,9.4,4.9
				c6.2,2.9,18.3,8.8,20.5,2.5c3.8-10.8,25.9,2.7,27.9,3.9l1.7-5.8C225.3,29.8,203.4,16.4,199.6,27.2z"/>
			<path class="st0" d="M196.5,37.6c-2.2,6.3-14.3,0.4-20.5-2.5c-4.6-2.1-7.8-3.9-9.5-5l4.6,5.8h-6.2c1.8,1,4.9,2.8,9.4,4.9
				c6.2,2.9,18.3,8.8,20.5,2.5c3.8-10.9,26.1,2.8,28,3.9l1.7-5.7C222.4,40.3,200.3,26.8,196.5,37.6z"/>
		</g>
		<path class="st0" d="M197.7,0c-36.6,0-66.3,12.7-66.3,28.4c0,15.7,29.7,28.4,66.3,28.4c36.6,0,66.3-12.7,66.3-28.4
			C264,12.7,234.3,0,197.7,0z M197.7,54.4c-32.7,0-59.2-11.6-59.2-26c0-14.3,26.5-26,59.2-26c32.7,0,59.1,11.6,59.1,26
			C256.8,42.8,230.3,54.4,197.7,54.4z"/>
	</g>
	<g>
		<path class="st0" d="M92.9,180.3c-0.9-0.6-2.8-1.2-4.7-1.2c-3.6,0-7.4,2.3-7.4,7.1c0,4.8,3.7,7.1,7.4,7.1c2.2,0,3.7-0.4,4.8-1.1
			l-0.3,2.6c-1.2,0.6-2.5,0.9-4.9,0.9c-4.7,0-10-3.3-10-9.6c0-6.4,5.4-9.6,10-9.6c2.5,0,4.4,0.6,5.5,1.2L92.9,180.3z"/>
		<path class="st0" d="M110.6,195.6v-8.3h-9.7v8.3H98v-18.9h2.9v8.2h9.7v-8.2h2.9v18.9H110.6z"/>
		<path class="st0" d="M131.7,195.6l-2-4.9h-7.3l-2,4.9h-2.8l8.1-19.2h1l8.1,19.2H131.7z M126.9,183.8c-0.3-0.6-0.6-1.5-0.8-2.3H126
			c-0.2,0.8-0.5,1.7-0.8,2.3l-1.9,4.6h5.4L126.9,183.8z"/>
		<path class="st0" d="M154.7,196l-8.9-9.7c-1.4-1.5-3-3.4-4.4-5l-0.1,0c0.1,1.7,0.1,3.3,0.1,4.7v9.5h-2.9v-18.9h2l8.1,8.9
			c1.1,1.2,2.8,3.1,4,4.5l0.1,0c-0.1-1.5-0.1-3.1-0.1-4.4v-8.9h2.9V196H154.7z"/>
		<path class="st0" d="M170.5,196c-5.1,0-10.4-3.4-10.4-9.8c0-6.5,5.5-9.8,10.2-9.8c2.6,0,4.7,0.6,6.1,1.5l-0.5,2.5
			c-1.4-0.9-3.3-1.5-5.2-1.5c-3.7,0-7.6,2.4-7.6,7.4c0,4.9,3.8,7.3,7.6,7.3c1.7,0,3.1-0.4,4-1v-4.2h-4.4v-2.3h7.1v7.8
			C175.6,195.4,173.3,196,170.5,196z"/>
		<path class="st0" d="M182.8,195.6v-18.9h2.9v18.9H182.8z"/>
		<path class="st0" d="M212.4,195.6l-2-4.9h-7.3l-2,4.9h-2.8l8.1-19.2h1l8.1,19.2H212.4z M207.6,183.8c-0.3-0.6-0.6-1.5-0.8-2.3
			h-0.1c-0.2,0.8-0.5,1.7-0.8,2.3l-1.9,4.6h5.4L207.6,183.8z"/>
		<path class="st0" d="M219.6,195.6v-18.9h2.9v18.9H219.6z"/>
		<path class="st0" d="M239.1,195.6l-5.9-8.3H231v8.3h-2.8v-18.9h5.7c2.7,0,5.7,1.7,5.7,5.3c0,2.5-1.5,4.1-3.3,4.9l6.5,8.7H239.1z
			 M233.3,179.2H231v5.7h2.3c1.7,0,3.3-0.9,3.3-2.9C236.6,180.1,235,179.2,233.3,179.2z"/>
		<path class="st0" d="M253.3,187.3h-3.1v8.3h-2.8v-18.9h6c2.7,0,5.7,1.7,5.7,5.3C259,185.6,255.9,187.3,253.3,187.3z M252.8,179.2
			h-2.6v5.7h2.6c1.7,0,3.3-0.9,3.3-2.9C256,180.1,254.5,179.2,252.8,179.2z"/>
		<path class="st0" d="M272.4,196c-5,0-10-3.7-10-9.8c0-6.1,5-9.8,10-9.8c5,0,10,3.7,10,9.8C282.4,192.3,277.4,196,272.4,196z
			 M272.4,178.9c-3.5,0-7.1,2.6-7.1,7.3c0,4.7,3.6,7.3,7.1,7.3c3.4,0,7.1-2.7,7.1-7.3C279.5,181.5,275.8,178.9,272.4,178.9z"/>
		<path class="st0" d="M297.6,195.6l-5.9-8.3h-2.2v8.3h-2.8v-18.9h5.7c2.7,0,5.7,1.7,5.7,5.3c0,2.5-1.5,4.1-3.3,4.9l6.5,8.7H297.6z
			 M291.8,179.2h-2.3v5.7h2.3c1.7,0,3.3-0.9,3.3-2.9C295.1,180.1,293.5,179.2,291.8,179.2z"/>
		<path class="st0" d="M311.5,179.2v16.4h-2.9v-16.4h-6.1v-2.5h15v2.5H311.5z"/>
	</g>
</g>
</svg>
