<svg id="_5723337741605806465" data-name="5723337741605806465" xmlns="http://www.w3.org/2000/svg" width="16.771" height="17.769" viewBox="0 0 16.771 17.769">
  <path id="Path_7" data-name="Path 7" d="M2.487,0h8.6a2.493,2.493,0,0,1,2.487,2.487V8.034a2.493,2.493,0,0,1-2.487,2.487h-4.3L3.009,13.767a.419.419,0,0,1-.69-.346l.2-2.9H2.487A2.493,2.493,0,0,1,0,8.034V2.487A2.493,2.493,0,0,1,2.487,0ZM14.794,4.046a2.447,2.447,0,0,1,1.978,2.393v5.547a2.444,2.444,0,0,1-2.436,2.436h-.088l.205,2.956h0a.367.367,0,0,1-.6.3l-3.791-3.355H5.062l2.46-2.5h5.211A2.074,2.074,0,0,0,14.8,9.757V4.209c0-.055,0-.11-.007-.163ZM3.713,6.316a.419.419,0,0,1,0-.839H8.1a.419.419,0,1,1,0,.839Zm0-2.076a.419.419,0,0,1,0-.839h6.22a.419.419,0,0,1,0,.839Zm7.371-3.4h-8.6A1.654,1.654,0,0,0,.839,2.487V8.034A1.654,1.654,0,0,0,2.487,9.682H3a.419.419,0,0,1,.389.445l-.163,2.351L6.338,9.8a.415.415,0,0,1,.295-.121h4.452a1.654,1.654,0,0,0,1.648-1.648V2.487A1.654,1.654,0,0,0,11.085.839Z" transform="translate(0 0)" fill="#fff"/>
</svg>
